<svg xmlns="http://www.w3.org/2000/svg" xmlns:xlink="http://www.w3.org/1999/xlink" width="500" zoomAndPan="magnify" viewBox="0 0 375 374.999991" height="500" preserveAspectRatio="xMidYMid meet" version="1.0"><defs><filter x="0%" y="0%" width="100%" height="100%" id="85fea1e194"><feColorMatrix values="0 0 0 0 1 0 0 0 0 1 0 0 0 0 1 0 0 0 1 0" color-interpolation-filters="sRGB"/></filter><g/><clipPath id="db805b8077"><path d="M 118.046875 74.757812 L 262.046875 74.757812 L 262.046875 218.757812 L 118.046875 218.757812 Z M 118.046875 74.757812 " clip-rule="nonzero"/></clipPath><mask id="48d412d22d"><g filter="url(#85fea1e194)"><rect x="-37.5" width="450" fill="#000000" y="-37.499999" height="449.999989" fill-opacity="0.2471"/></g></mask><clipPath id="2a23fac843"><path d="M 68 0.757812 L 75 0.757812 L 75 144.757812 L 68 144.757812 Z M 68 0.757812 " clip-rule="nonzero"/></clipPath><clipPath id="3acca1073f"><path d="M 56 1 L 82 1 L 82 144.757812 L 56 144.757812 Z M 56 1 " clip-rule="nonzero"/></clipPath><clipPath id="be3b44c411"><path d="M 0.046875 57 L 143 57 L 143 131 L 0.046875 131 Z M 0.046875 57 " clip-rule="nonzero"/></clipPath><clipPath id="a6f9282670"><path d="M 0.046875 67 L 144 67 L 144 131 L 0.046875 131 Z M 0.046875 67 " clip-rule="nonzero"/></clipPath><clipPath id="7e38347ccb"><path d="M 65 0.757812 L 82 0.757812 L 82 144.757812 L 65 144.757812 Z M 65 0.757812 " clip-rule="nonzero"/></clipPath><clipPath id="64eeddb5e1"><path d="M 52 0.757812 L 92 0.757812 L 92 4 L 52 4 Z M 52 0.757812 " clip-rule="nonzero"/></clipPath><clipPath id="0bcad4c13f"><path d="M 0.046875 28 L 144.046875 28 L 144.046875 74 L 0.046875 74 Z M 0.046875 28 " clip-rule="nonzero"/></clipPath><clipPath id="6c691f9724"><path d="M 35 99 L 109 99 L 109 144.757812 L 35 144.757812 Z M 35 99 " clip-rule="nonzero"/></clipPath><clipPath id="3fd8309ac5"><rect x="0" width="145" y="0" height="145"/></clipPath><clipPath id="008d31a2bf"><path d="M 187 74.757812 L 194 74.757812 L 194 218.757812 L 187 218.757812 Z M 187 74.757812 " clip-rule="nonzero"/></clipPath><clipPath id="12e96688bc"><path d="M 180 75 L 206 75 L 206 218.757812 L 180 218.757812 Z M 180 75 " clip-rule="nonzero"/></clipPath><clipPath id="b3f0356730"><path d="M 118.046875 89 L 262 89 L 262 153 L 118.046875 153 Z M 118.046875 89 " clip-rule="nonzero"/></clipPath><clipPath id="6832b1f947"><path d="M 180 74.757812 L 197 74.757812 L 197 218.757812 L 180 218.757812 Z M 180 74.757812 " clip-rule="nonzero"/></clipPath><clipPath id="295263b0f7"><path d="M 170 216 L 210 216 L 210 218.757812 L 170 218.757812 Z M 170 216 " clip-rule="nonzero"/></clipPath><clipPath id="7d0c258d7d"><path d="M 118.046875 146 L 262.046875 146 L 262.046875 191 L 118.046875 191 Z M 118.046875 146 " clip-rule="nonzero"/></clipPath><clipPath id="89967d0d37"><path d="M 116 142 L 151 142 L 151 207.371094 L 116 207.371094 Z M 116 142 " clip-rule="nonzero"/></clipPath></defs><g fill="#0dcece" fill-opacity="1"><g transform="translate(57.779499, 263.599963)"><g><path d="M 7.890625 -19.53125 L 0.15625 -19.53125 L 0.15625 -26.4375 L 24.546875 -26.4375 L 24.546875 -19.53125 L 16.8125 -19.53125 L 16.8125 0 L 7.890625 0 Z M 7.890625 -19.53125 "/></g></g></g><g fill="#0dcece" fill-opacity="1"><g transform="translate(82.473112, 263.599963)"><g><path d="M 28.21875 -26.4375 L 28.21875 0 L 19.296875 0 L 19.296875 -9.75 L 11.0625 -9.75 L 11.0625 0 L 2.15625 0 L 2.15625 -26.4375 L 11.0625 -26.4375 L 11.0625 -17.0625 L 19.296875 -17.0625 L 19.296875 -26.4375 Z M 28.21875 -26.4375 "/></g></g></g><g fill="#0dcece" fill-opacity="1"><g transform="translate(112.830394, 263.599963)"><g><path d="M 24.125 -6.71875 L 24.125 0 L 2.15625 0 L 2.15625 -26.4375 L 23.640625 -26.4375 L 23.640625 -19.71875 L 10.921875 -19.71875 L 10.921875 -16.609375 L 22.09375 -16.609375 L 22.09375 -10.203125 L 10.921875 -10.203125 L 10.921875 -6.71875 Z M 24.125 -6.71875 "/></g></g></g><g fill="#0dcece" fill-opacity="1"><g transform="translate(138.241404, 263.599963)"><g/></g></g><g fill="#0dcece" fill-opacity="1"><g transform="translate(149.568742, 263.599963)"><g><path d="M 23.296875 -13.828125 C 24.859375 -13.242188 26.066406 -12.394531 26.921875 -11.28125 C 27.785156 -10.175781 28.21875 -8.84375 28.21875 -7.28125 C 28.21875 -4.96875 27.257812 -3.175781 25.34375 -1.90625 C 23.425781 -0.632812 20.65625 0 17.03125 0 L 2.15625 0 L 2.15625 -26.4375 L 16.28125 -26.4375 C 19.800781 -26.4375 22.460938 -25.804688 24.265625 -24.546875 C 26.066406 -23.285156 26.96875 -21.613281 26.96875 -19.53125 C 26.96875 -18.289062 26.65625 -17.179688 26.03125 -16.203125 C 25.414062 -15.222656 24.503906 -14.429688 23.296875 -13.828125 Z M 10.921875 -20.203125 L 10.921875 -16.28125 L 15.0625 -16.28125 C 17 -16.28125 17.96875 -16.929688 17.96875 -18.234375 C 17.96875 -19.546875 17 -20.203125 15.0625 -20.203125 Z M 16.28125 -6.234375 C 18.238281 -6.234375 19.21875 -6.925781 19.21875 -8.3125 C 19.21875 -9.695312 18.238281 -10.390625 16.28125 -10.390625 L 10.921875 -10.390625 L 10.921875 -6.234375 Z M 16.28125 -6.234375 "/></g></g></g><g fill="#0dcece" fill-opacity="1"><g transform="translate(178.755535, 263.599963)"><g><path d="M 13.484375 -6.640625 L 11.0625 -6.640625 L 11.0625 0 L 2.15625 0 L 2.15625 -26.4375 L 14.875 -26.4375 C 17.320312 -26.4375 19.453125 -26.03125 21.265625 -25.21875 C 23.078125 -24.414062 24.472656 -23.257812 25.453125 -21.75 C 26.429688 -20.238281 26.921875 -18.476562 26.921875 -16.46875 C 26.921875 -14.582031 26.492188 -12.929688 25.640625 -11.515625 C 24.785156 -10.109375 23.550781 -8.988281 21.9375 -8.15625 L 27.5 0 L 17.96875 0 Z M 17.9375 -16.46875 C 17.9375 -17.445312 17.632812 -18.207031 17.03125 -18.75 C 16.425781 -19.289062 15.519531 -19.5625 14.3125 -19.5625 L 11.0625 -19.5625 L 11.0625 -13.375 L 14.3125 -13.375 C 15.519531 -13.375 16.425781 -13.644531 17.03125 -14.1875 C 17.632812 -14.726562 17.9375 -15.488281 17.9375 -16.46875 Z M 17.9375 -16.46875 "/></g></g></g><g fill="#0dcece" fill-opacity="1"><g transform="translate(206.885099, 263.599963)"><g><path d="M 20.171875 -4.609375 L 10.125 -4.609375 L 8.34375 0 L -0.71875 0 L 10.84375 -26.4375 L 19.59375 -26.4375 L 31.15625 0 L 21.9375 0 Z M 17.71875 -11.03125 L 15.140625 -17.671875 L 12.578125 -11.03125 Z M 17.71875 -11.03125 "/></g></g></g><g fill="#0dcece" fill-opacity="1"><g transform="translate(237.31789, 263.599963)"><g><path d="M 30.40625 -26.4375 L 19.21875 0 L 10.46875 0 L -0.71875 -26.4375 L 8.875 -26.4375 L 15.1875 -10.984375 L 21.640625 -26.4375 Z M 30.40625 -26.4375 "/></g></g></g><g fill="#0dcece" fill-opacity="1"><g transform="translate(266.995519, 263.599963)"><g><path d="M 24.125 -6.71875 L 24.125 0 L 2.15625 0 L 2.15625 -26.4375 L 23.640625 -26.4375 L 23.640625 -19.71875 L 10.921875 -19.71875 L 10.921875 -16.609375 L 22.09375 -16.609375 L 22.09375 -10.203125 L 10.921875 -10.203125 L 10.921875 -6.71875 Z M 24.125 -6.71875 "/></g></g></g><g fill="#0dcece" fill-opacity="1"><g transform="translate(292.406528, 263.599963)"><g><path d="M 12.015625 0.609375 C 9.816406 0.609375 7.679688 0.363281 5.609375 -0.125 C 3.535156 -0.625 1.828125 -1.285156 0.484375 -2.109375 L 3.359375 -8.609375 C 4.617188 -7.878906 6.03125 -7.289062 7.59375 -6.84375 C 9.15625 -6.40625 10.648438 -6.1875 12.078125 -6.1875 C 13.316406 -6.1875 14.195312 -6.304688 14.71875 -6.546875 C 15.25 -6.785156 15.515625 -7.144531 15.515625 -7.625 C 15.515625 -8.175781 15.164062 -8.59375 14.46875 -8.875 C 13.78125 -9.15625 12.644531 -9.457031 11.0625 -9.78125 C 9.019531 -10.207031 7.316406 -10.664062 5.953125 -11.15625 C 4.597656 -11.644531 3.414062 -12.445312 2.40625 -13.5625 C 1.40625 -14.6875 0.90625 -16.207031 0.90625 -18.125 C 0.90625 -19.789062 1.367188 -21.300781 2.296875 -22.65625 C 3.234375 -24.019531 4.625 -25.09375 6.46875 -25.875 C 8.320312 -26.65625 10.570312 -27.046875 13.21875 -27.046875 C 15.03125 -27.046875 16.8125 -26.847656 18.5625 -26.453125 C 20.3125 -26.066406 21.851562 -25.492188 23.1875 -24.734375 L 20.5 -18.28125 C 17.90625 -19.59375 15.453125 -20.25 13.140625 -20.25 C 10.847656 -20.25 9.703125 -19.691406 9.703125 -18.578125 C 9.703125 -18.046875 10.039062 -17.648438 10.71875 -17.390625 C 11.40625 -17.128906 12.53125 -16.847656 14.09375 -16.546875 C 16.101562 -16.160156 17.800781 -15.722656 19.1875 -15.234375 C 20.570312 -14.742188 21.773438 -13.941406 22.796875 -12.828125 C 23.816406 -11.722656 24.328125 -10.21875 24.328125 -8.3125 C 24.328125 -6.644531 23.859375 -5.140625 22.921875 -3.796875 C 21.992188 -2.453125 20.601562 -1.378906 18.75 -0.578125 C 16.894531 0.210938 14.648438 0.609375 12.015625 0.609375 Z M 12.015625 0.609375 "/></g></g></g><g fill="#0dcece" fill-opacity="1"><g transform="translate(110.726422, 293.775595)"><g><path d="M 6.875 -13.453125 L 1.65625 -13.453125 L 1.921875 -14.796875 L 13.90625 -14.796875 L 13.609375 -13.453125 L 8.40625 -13.453125 L 5.734375 0 L 4.1875 0 Z M 6.875 -13.453125 "/></g></g></g><g fill="#0dcece" fill-opacity="1"><g transform="translate(122.861141, 293.775595)"><g><path d="M 5.53125 -13.453125 L 4.484375 -8.1875 L 12.15625 -8.1875 L 11.90625 -6.84375 L 4.234375 -6.84375 L 3.125 -1.359375 L 12.03125 -1.359375 L 11.75 0 L 1.3125 0 L 4.265625 -14.796875 L 14.421875 -14.796875 L 14.140625 -13.453125 Z M 5.53125 -13.453125 "/></g></g></g><g fill="#0dcece" fill-opacity="1"><g transform="translate(137.004229, 293.775595)"><g><path d="M 8.265625 0.125 C 6.828125 0.125 5.585938 -0.128906 4.546875 -0.640625 C 3.503906 -1.160156 2.710938 -1.878906 2.171875 -2.796875 C 1.628906 -3.722656 1.359375 -4.800781 1.359375 -6.03125 C 1.359375 -7.664062 1.726562 -9.15625 2.46875 -10.5 C 3.207031 -11.851562 4.257812 -12.925781 5.625 -13.71875 C 6.988281 -14.519531 8.566406 -14.921875 10.359375 -14.921875 C 11.546875 -14.921875 12.597656 -14.734375 13.515625 -14.359375 C 14.429688 -13.992188 15.132812 -13.460938 15.625 -12.765625 L 14.53125 -11.796875 C 13.582031 -12.953125 12.148438 -13.53125 10.234375 -13.53125 C 8.773438 -13.53125 7.488281 -13.191406 6.375 -12.515625 C 5.269531 -11.847656 4.410156 -10.953125 3.796875 -9.828125 C 3.191406 -8.703125 2.890625 -7.460938 2.890625 -6.109375 C 2.890625 -4.628906 3.363281 -3.453125 4.3125 -2.578125 C 5.269531 -1.703125 6.628906 -1.265625 8.390625 -1.265625 C 10.328125 -1.265625 11.894531 -1.847656 13.09375 -3.015625 L 14 -1.984375 C 13.34375 -1.304688 12.515625 -0.785156 11.515625 -0.421875 C 10.515625 -0.0546875 9.429688 0.125 8.265625 0.125 Z M 8.265625 0.125 "/></g></g></g><g fill="#0dcece" fill-opacity="1"><g transform="translate(152.204339, 293.775595)"><g><path d="M 16.609375 -14.796875 L 13.65625 0 L 12.109375 0 L 13.46875 -6.8125 L 4.203125 -6.8125 L 2.859375 0 L 1.3125 0 L 4.265625 -14.796875 L 5.8125 -14.796875 L 4.5 -8.21875 L 13.765625 -8.21875 L 15.078125 -14.796875 Z M 16.609375 -14.796875 "/></g></g></g><g fill="#0dcece" fill-opacity="1"><g transform="translate(169.391671, 293.775595)"><g><path d="M 16.609375 -14.796875 L 13.65625 0 L 12.390625 0 L 5.3125 -12.265625 L 2.859375 0 L 1.3125 0 L 4.265625 -14.796875 L 5.53125 -14.796875 L 12.625 -2.53125 L 15.078125 -14.796875 Z M 16.609375 -14.796875 "/></g></g></g><g fill="#0dcece" fill-opacity="1"><g transform="translate(186.579002, 293.775595)"><g><path d="M 8.203125 0.125 C 6.765625 0.125 5.53125 -0.128906 4.5 -0.640625 C 3.46875 -1.160156 2.6875 -1.878906 2.15625 -2.796875 C 1.625 -3.722656 1.359375 -4.800781 1.359375 -6.03125 C 1.359375 -7.644531 1.722656 -9.128906 2.453125 -10.484375 C 3.179688 -11.847656 4.222656 -12.925781 5.578125 -13.71875 C 6.929688 -14.519531 8.5 -14.921875 10.28125 -14.921875 C 11.71875 -14.921875 12.945312 -14.660156 13.96875 -14.140625 C 15 -13.628906 15.785156 -12.910156 16.328125 -11.984375 C 16.867188 -11.066406 17.140625 -9.992188 17.140625 -8.765625 C 17.140625 -7.148438 16.769531 -5.660156 16.03125 -4.296875 C 15.289062 -2.941406 14.242188 -1.863281 12.890625 -1.0625 C 11.535156 -0.269531 9.972656 0.125 8.203125 0.125 Z M 8.34375 -1.265625 C 9.769531 -1.265625 11.03125 -1.597656 12.125 -2.265625 C 13.226562 -2.941406 14.078125 -3.847656 14.671875 -4.984375 C 15.273438 -6.117188 15.578125 -7.359375 15.578125 -8.703125 C 15.578125 -10.171875 15.101562 -11.34375 14.15625 -12.21875 C 13.21875 -13.09375 11.875 -13.53125 10.125 -13.53125 C 8.695312 -13.53125 7.429688 -13.191406 6.328125 -12.515625 C 5.234375 -11.847656 4.382812 -10.945312 3.78125 -9.8125 C 3.1875 -8.6875 2.890625 -7.453125 2.890625 -6.109375 C 2.890625 -4.628906 3.363281 -3.453125 4.3125 -2.578125 C 5.257812 -1.703125 6.601562 -1.265625 8.34375 -1.265625 Z M 8.34375 -1.265625 "/></g></g></g><g fill="#0dcece" fill-opacity="1"><g transform="translate(204.315993, 293.775595)"><g><path d="M 4.265625 -14.796875 L 5.8125 -14.796875 L 3.125 -1.359375 L 11.421875 -1.359375 L 11.140625 0 L 1.3125 0 Z M 4.265625 -14.796875 "/></g></g></g><g fill="#0dcece" fill-opacity="1"><g transform="translate(216.767828, 293.775595)"><g><path d="M 8.203125 0.125 C 6.765625 0.125 5.53125 -0.128906 4.5 -0.640625 C 3.46875 -1.160156 2.6875 -1.878906 2.15625 -2.796875 C 1.625 -3.722656 1.359375 -4.800781 1.359375 -6.03125 C 1.359375 -7.644531 1.722656 -9.128906 2.453125 -10.484375 C 3.179688 -11.847656 4.222656 -12.925781 5.578125 -13.71875 C 6.929688 -14.519531 8.5 -14.921875 10.28125 -14.921875 C 11.71875 -14.921875 12.945312 -14.660156 13.96875 -14.140625 C 15 -13.628906 15.785156 -12.910156 16.328125 -11.984375 C 16.867188 -11.066406 17.140625 -9.992188 17.140625 -8.765625 C 17.140625 -7.148438 16.769531 -5.660156 16.03125 -4.296875 C 15.289062 -2.941406 14.242188 -1.863281 12.890625 -1.0625 C 11.535156 -0.269531 9.972656 0.125 8.203125 0.125 Z M 8.34375 -1.265625 C 9.769531 -1.265625 11.03125 -1.597656 12.125 -2.265625 C 13.226562 -2.941406 14.078125 -3.847656 14.671875 -4.984375 C 15.273438 -6.117188 15.578125 -7.359375 15.578125 -8.703125 C 15.578125 -10.171875 15.101562 -11.34375 14.15625 -12.21875 C 13.21875 -13.09375 11.875 -13.53125 10.125 -13.53125 C 8.695312 -13.53125 7.429688 -13.191406 6.328125 -12.515625 C 5.234375 -11.847656 4.382812 -10.945312 3.78125 -9.8125 C 3.1875 -8.6875 2.890625 -7.453125 2.890625 -6.109375 C 2.890625 -4.628906 3.363281 -3.453125 4.3125 -2.578125 C 5.257812 -1.703125 6.601562 -1.265625 8.34375 -1.265625 Z M 8.34375 -1.265625 "/></g></g></g><g fill="#0dcece" fill-opacity="1"><g transform="translate(234.504819, 293.775595)"><g><path d="M 10.3125 -13.53125 C 8.851562 -13.53125 7.554688 -13.195312 6.421875 -12.53125 C 5.296875 -11.875 4.425781 -10.976562 3.8125 -9.84375 C 3.195312 -8.71875 2.890625 -7.472656 2.890625 -6.109375 C 2.890625 -4.628906 3.363281 -3.453125 4.3125 -2.578125 C 5.269531 -1.703125 6.644531 -1.265625 8.4375 -1.265625 C 9.851562 -1.265625 11.113281 -1.65625 12.21875 -2.4375 L 13.21875 -7.40625 L 14.71875 -7.40625 L 13.578125 -1.71875 C 12.878906 -1.132812 12.066406 -0.679688 11.140625 -0.359375 C 10.222656 -0.0351562 9.265625 0.125 8.265625 0.125 C 6.835938 0.125 5.601562 -0.125 4.5625 -0.625 C 3.519531 -1.132812 2.722656 -1.851562 2.171875 -2.78125 C 1.628906 -3.71875 1.359375 -4.800781 1.359375 -6.03125 C 1.359375 -7.664062 1.726562 -9.15625 2.46875 -10.5 C 3.207031 -11.851562 4.257812 -12.925781 5.625 -13.71875 C 6.988281 -14.519531 8.570312 -14.921875 10.375 -14.921875 C 11.613281 -14.921875 12.703125 -14.734375 13.640625 -14.359375 C 14.578125 -13.992188 15.320312 -13.460938 15.875 -12.765625 L 14.78125 -11.8125 C 14.269531 -12.40625 13.644531 -12.835938 12.90625 -13.109375 C 12.175781 -13.390625 11.3125 -13.53125 10.3125 -13.53125 Z M 10.3125 -13.53125 "/></g></g></g><g fill="#0dcece" fill-opacity="1"><g transform="translate(250.846523, 293.775595)"><g><path d="M 7.359375 -4.984375 L 6.359375 0 L 4.8125 0 L 5.828125 -5.09375 L 1.859375 -14.796875 L 3.421875 -14.796875 L 6.84375 -6.46875 L 13.578125 -14.796875 L 15.25 -14.796875 Z M 7.359375 -4.984375 "/></g></g></g><g clip-path="url(#db805b8077)"><g mask="url(#48d412d22d)"><g transform="matrix(1, 0, 0, 1, 118, 74)"><g clip-path="url(#3fd8309ac5)"><g clip-path="url(#2a23fac843)"><path fill="#ffffff" d="M 74.277344 144.757812 C 72.910156 144.757812 70.894531 112.570312 69.886719 72.828125 C 68.804688 33.082031 69.09375 0.828125 70.460938 0.757812 C 70.246094 0.757812 70.027344 0.757812 69.8125 0.757812 C 68.445312 0.828125 68.15625 33.082031 69.238281 72.828125 C 70.316406 112.570312 72.261719 144.757812 73.628906 144.757812 C 73.84375 144.757812 74.0625 144.757812 74.277344 144.757812 Z M 74.277344 144.757812 " fill-opacity="1" fill-rule="nonzero"/></g><g clip-path="url(#3acca1073f)"><path fill="#ffffff" d="M 81.980469 144.035156 C 75.214844 144.972656 65.421875 113.796875 60.09375 74.339844 C 54.765625 35.027344 55.988281 2.269531 62.683594 1.332031 C 62.46875 1.332031 62.253906 1.402344 62.035156 1.402344 C 55.269531 2.339844 54.117188 35.027344 59.445312 74.410156 C 64.773438 113.796875 74.566406 144.972656 81.332031 144.109375 C 81.550781 144.109375 81.765625 144.109375 81.980469 144.035156 Z M 81.980469 144.035156 " fill-opacity="1" fill-rule="nonzero"/></g><path fill="#ffffff" d="M 89.972656 142.523438 C 78.238281 145.476562 60.886719 116.675781 51.164062 78.082031 C 41.445312 39.5625 43.027344 5.867188 54.691406 2.84375 C 54.691406 2.84375 54.691406 2.84375 54.765625 2.84375 C 54.550781 2.914062 54.332031 2.988281 54.117188 2.988281 C 42.453125 6.011719 40.796875 39.636719 50.589844 78.226562 C 60.308594 116.746094 77.660156 145.546875 89.324219 142.667969 C 89.542969 142.597656 89.757812 142.523438 89.972656 142.523438 Z M 89.972656 142.523438 " fill-opacity="1" fill-rule="nonzero"/><path fill="#ffffff" d="M 98.398438 139.789062 C 82.628906 145.980469 58.148438 120.996094 43.75 83.914062 C 29.347656 46.835938 30.429688 11.773438 46.195312 5.578125 C 46.195312 5.578125 46.269531 5.578125 46.269531 5.507812 C 46.125 5.578125 45.910156 5.652344 45.691406 5.722656 C 29.925781 11.914062 28.773438 46.980469 43.246094 84.058594 C 57.644531 120.996094 81.980469 146.050781 97.820312 140.003906 C 97.964844 139.933594 98.179688 139.859375 98.398438 139.789062 Z M 98.398438 139.789062 " fill-opacity="1" fill-rule="nonzero"/><path fill="#ffffff" d="M 107.46875 135.46875 C 88.894531 145.90625 58.148438 126.324219 38.710938 91.621094 C 19.269531 56.914062 18.621094 20.269531 37.125 9.828125 C 37.195312 9.828125 37.269531 9.757812 37.269531 9.757812 C 37.054688 9.898438 36.835938 9.972656 36.621094 10.117188 C 18.117188 20.554688 18.765625 57.132812 38.203125 91.835938 C 57.574219 126.394531 88.171875 146.050781 106.820312 135.828125 C 107.035156 135.683594 107.253906 135.539062 107.46875 135.46875 Z M 107.46875 135.46875 " fill-opacity="1" fill-rule="nonzero"/><path fill="#ffffff" d="M 117.117188 128.914062 C 97.605469 144.613281 61.675781 132.082031 36.910156 100.980469 C 12.140625 69.875 7.820312 31.933594 27.40625 16.308594 C 27.476562 16.234375 27.550781 16.164062 27.621094 16.09375 C 27.40625 16.234375 27.1875 16.453125 26.972656 16.597656 C 7.460938 32.292969 11.710938 70.164062 36.476562 101.269531 C 61.171875 132.226562 96.886719 144.757812 116.46875 129.421875 C 116.683594 129.277344 116.902344 129.058594 117.117188 128.914062 Z M 117.117188 128.914062 " fill-opacity="1" fill-rule="nonzero"/><path fill="#ffffff" d="M 127.054688 119.195312 C 108.980469 140.578125 69.8125 137.050781 39.5 111.277344 C 9.1875 85.5 -0.746094 47.339844 17.324219 25.957031 C 17.398438 25.8125 17.542969 25.738281 17.613281 25.597656 C 17.398438 25.8125 17.253906 26.027344 17.035156 26.242188 C -1.035156 47.699219 8.902344 85.859375 39.214844 111.636719 C 69.308594 137.269531 108.261719 140.941406 126.476562 119.914062 C 126.691406 119.628906 126.835938 119.410156 127.054688 119.195312 Z M 127.054688 119.195312 " fill-opacity="1" fill-rule="nonzero"/><path fill="#ffffff" d="M 136.195312 105.445312 C 122.515625 132.226562 82.773438 139.285156 47.421875 121.140625 C 12.070312 102.996094 -5.570312 66.5625 8.109375 39.707031 C 8.179688 39.5625 8.253906 39.347656 8.324219 39.203125 C 8.179688 39.492188 8.035156 39.78125 7.894531 40.066406 C -5.785156 66.851562 11.851562 103.355469 47.203125 121.5 C 82.339844 139.5 121.867188 132.730469 135.765625 106.308594 C 135.910156 106.019531 136.054688 105.730469 136.195312 105.445312 Z M 136.195312 105.445312 " fill-opacity="1" fill-rule="nonzero"/><g clip-path="url(#be3b44c411)"><path fill="#ffffff" d="M 142.53125 87.445312 C 136.125 118.117188 99.40625 136.261719 60.523438 127.980469 C 21.644531 119.773438 -4.707031 88.234375 1.699219 57.636719 C 1.699219 57.421875 1.699219 57.277344 1.773438 57.058594 C 1.699219 57.421875 1.628906 57.707031 1.558594 58.066406 C -4.851562 88.667969 21.5 120.203125 60.382812 128.410156 C 98.972656 136.621094 135.476562 118.765625 142.246094 88.523438 C 142.390625 88.164062 142.460938 87.804688 142.53125 87.445312 Z M 142.53125 87.445312 " fill-opacity="1" fill-rule="nonzero"/></g><g clip-path="url(#a6f9282670)"><path fill="#ffffff" d="M 143.828125 67.066406 C 146.277344 98.460938 116.179688 126.394531 76.507812 129.421875 C 36.835938 132.445312 2.710938 109.476562 0.261719 78.011719 C 0.261719 77.796875 0.261719 77.578125 0.1875 77.363281 C 0.1875 77.722656 0.261719 78.082031 0.261719 78.371094 C 2.78125 109.835938 36.910156 132.875 76.582031 129.851562 C 115.894531 126.828125 145.917969 99.324219 143.902344 68.148438 C 143.902344 67.789062 143.828125 67.429688 143.828125 67.066406 Z M 143.828125 67.066406 " fill-opacity="1" fill-rule="nonzero"/></g><path fill="#ffffff" d="M 139.507812 47.628906 C 150.238281 76.5 128.710938 111.058594 91.414062 124.8125 C 54.117188 138.5625 15.164062 126.324219 4.4375 97.453125 C 4.363281 97.308594 4.292969 97.09375 4.222656 96.949219 C 4.363281 97.234375 4.4375 97.523438 4.582031 97.882812 C 15.308594 126.757812 54.261719 138.996094 91.558594 125.242188 C 128.566406 111.5625 150.164062 77.4375 139.867188 48.636719 C 139.726562 48.277344 139.652344 47.988281 139.507812 47.628906 Z M 139.507812 47.628906 " fill-opacity="1" fill-rule="nonzero"/><path fill="#ffffff" d="M 131.300781 31.859375 C 147.859375 55.835938 134.683594 93.5625 101.851562 116.027344 C 69.019531 138.492188 29.0625 137.269531 12.5 113.292969 C 12.429688 113.148438 12.355469 113.003906 12.285156 112.859375 C 12.429688 113.148438 12.574219 113.363281 12.789062 113.652344 C 29.347656 137.628906 69.308594 138.851562 102.140625 116.386719 C 134.683594 94.066406 148.003906 56.699219 131.804688 32.652344 C 131.660156 32.363281 131.515625 32.148438 131.300781 31.859375 Z M 131.300781 31.859375 " fill-opacity="1" fill-rule="nonzero"/><path fill="#ffffff" d="M 121.507812 20.410156 C 140.878906 38.699219 134.324219 76.859375 106.894531 105.660156 C 79.460938 134.460938 41.589844 143.027344 22.292969 124.738281 C 22.148438 124.667969 22.078125 124.597656 22.003906 124.523438 C 22.222656 124.738281 22.4375 124.882812 22.582031 125.101562 C 41.949219 143.386719 79.820312 134.820312 107.253906 106.019531 C 134.46875 77.363281 141.164062 39.421875 122.085938 20.988281 C 121.867188 20.773438 121.652344 20.628906 121.507812 20.410156 Z M 121.507812 20.410156 " fill-opacity="1" fill-rule="nonzero"/><path fill="#ffffff" d="M 111.574219 12.5625 C 131.011719 25.308594 128.996094 62.605469 107.035156 95.722656 C 85.078125 128.914062 51.523438 145.402344 32.085938 132.660156 C 32.011719 132.589844 31.941406 132.589844 31.867188 132.515625 C 32.085938 132.660156 32.300781 132.804688 32.515625 132.949219 C 51.957031 145.691406 85.507812 129.203125 107.46875 96.011719 C 129.285156 63.035156 131.445312 25.882812 112.222656 12.996094 C 112.003906 12.851562 111.789062 12.707031 111.574219 12.5625 Z M 111.574219 12.5625 " fill-opacity="1" fill-rule="nonzero"/><path fill="#ffffff" d="M 102.214844 7.378906 C 119.636719 15.445312 120.140625 51.15625 103.363281 87.226562 C 86.589844 123.300781 58.796875 145.980469 41.371094 137.914062 C 41.300781 137.914062 41.300781 137.84375 41.230469 137.84375 C 41.445312 137.914062 41.660156 138.058594 41.878906 138.132812 C 59.300781 146.195312 87.09375 123.515625 103.867188 87.445312 C 120.644531 51.515625 120.140625 15.875 102.859375 7.667969 C 102.644531 7.597656 102.429688 7.453125 102.214844 7.378906 Z M 102.214844 7.378906 " fill-opacity="1" fill-rule="nonzero"/><path fill="#ffffff" d="M 93.5 3.996094 C 107.398438 8.316406 108.980469 42.589844 96.957031 80.53125 C 84.933594 118.476562 63.980469 145.621094 50.085938 141.300781 L 50.011719 141.300781 C 50.15625 141.371094 50.371094 141.445312 50.589844 141.515625 C 64.484375 145.835938 85.507812 118.691406 97.460938 80.746094 C 109.484375 42.875 107.972656 8.675781 94.148438 4.210938 C 93.933594 4.140625 93.71875 4.066406 93.5 3.996094 Z M 93.5 3.996094 " fill-opacity="1" fill-rule="nonzero"/><path fill="#ffffff" d="M 85.292969 1.980469 C 94.582031 3.707031 96.09375 36.828125 88.605469 75.851562 C 81.117188 114.875 67.507812 145.117188 58.148438 143.386719 C 58.363281 143.460938 58.582031 143.460938 58.796875 143.53125 C 68.085938 145.261719 81.765625 115.019531 89.253906 75.996094 C 96.742188 36.972656 95.230469 3.925781 85.941406 2.125 C 85.726562 2.050781 85.507812 2.050781 85.292969 1.980469 Z M 85.292969 1.980469 " fill-opacity="1" fill-rule="nonzero"/><g clip-path="url(#7e38347ccb)"><path fill="#ffffff" d="M 77.515625 0.972656 C 81.621094 1.332031 82.339844 33.730469 79.171875 73.332031 C 76.003906 113.003906 70.101562 144.828125 65.996094 144.539062 C 66.214844 144.539062 66.429688 144.539062 66.644531 144.613281 C 70.675781 144.898438 76.582031 113.003906 79.820312 73.402344 C 82.988281 33.730469 82.269531 1.402344 78.164062 1.042969 C 77.878906 0.972656 77.660156 0.972656 77.515625 0.972656 Z M 77.515625 0.972656 " fill-opacity="1" fill-rule="nonzero"/></g><g clip-path="url(#64eeddb5e1)"><path fill="#ffffff" d="M 91.699219 3.492188 C 79.246094 -0.0351562 64.84375 -0.0351562 52.390625 3.492188 C 53.035156 3.277344 53.683594 3.132812 54.261719 2.988281 C 65.636719 0.109375 78.382812 0.109375 89.757812 2.988281 C 90.40625 3.132812 91.054688 3.277344 91.699219 3.492188 Z M 91.699219 3.492188 " fill-opacity="1" fill-rule="nonzero"/></g><path fill="#ffffff" d="M 114.667969 14.722656 C 95.15625 0.394531 60.238281 -1.621094 36.691406 10.261719 C 34.027344 11.628906 31.582031 13.066406 29.421875 14.722656 C 29.710938 14.507812 29.996094 14.292969 30.285156 14.148438 C 50.011719 0.0351562 84.644531 -1.621094 107.757812 10.402344 C 109.917969 11.554688 111.933594 12.78125 113.804688 14.148438 C 114.09375 14.292969 114.382812 14.507812 114.667969 14.722656 Z M 114.667969 14.722656 " fill-opacity="1" fill-rule="nonzero"/><path fill="#ffffff" d="M 128.203125 27.757812 C 113.085938 8.890625 75.644531 1.042969 44.613281 10.261719 C 32.085938 13.933594 22.003906 20.125 15.886719 27.757812 C 16.101562 27.539062 16.246094 27.324219 16.460938 27.035156 C 31.796875 8.316406 69.164062 0.757812 99.910156 10.117188 C 111.933594 13.789062 121.652344 19.691406 127.699219 27.035156 C 127.84375 27.253906 128.0625 27.46875 128.203125 27.757812 Z M 128.203125 27.757812 " fill-opacity="1" fill-rule="nonzero"/><path fill="#ffffff" d="M 137.203125 42.082031 C 126.910156 20.195312 89.398438 7.523438 53.398438 13.789062 C 30.933594 17.675781 13.363281 28.402344 6.957031 42.082031 C 7.027344 41.867188 7.171875 41.578125 7.246094 41.363281 C 17.828125 19.546875 55.414062 7.09375 91.195312 13.570312 C 113.15625 17.460938 130.363281 27.972656 136.84375 41.363281 C 136.917969 41.578125 137.0625 41.867188 137.203125 42.082031 Z M 137.203125 42.082031 " fill-opacity="1" fill-rule="nonzero"/><path fill="#ffffff" d="M 142.390625 57.421875 C 137.203125 33.730469 101.566406 17.101562 62.683594 20.269531 C 30.933594 22.859375 5.949219 38.050781 1.699219 57.421875 C 1.773438 57.132812 1.84375 56.84375 1.84375 56.628906 C 7.316406 33.011719 43.101562 16.597656 81.910156 19.90625 C 113.230469 22.570312 137.851562 37.546875 142.246094 56.628906 C 142.246094 56.84375 142.316406 57.132812 142.390625 57.421875 Z M 142.390625 57.421875 " fill-opacity="1" fill-rule="nonzero"/><g clip-path="url(#0bcad4c13f)"><path fill="#ffffff" d="M 144.046875 73.117188 C 144.1875 48.925781 112.003906 29.195312 72.261719 29.125 C 32.515625 29.125 0.1875 48.636719 0.046875 72.898438 C 0.046875 72.972656 0.046875 73.117188 0.046875 73.1875 C 0.046875 72.898438 0.046875 72.683594 0.046875 72.394531 C 0.1875 48.132812 32.515625 28.621094 72.261719 28.691406 C 111.859375 28.765625 143.902344 48.277344 144.046875 72.324219 C 144.046875 72.613281 144.046875 72.898438 144.046875 73.117188 Z M 144.046875 73.117188 " fill-opacity="1" fill-rule="nonzero"/></g><path fill="#ffffff" d="M 142.246094 88.882812 C 147.644531 65.269531 120.644531 43.523438 81.910156 40.210938 C 43.171875 36.898438 7.316406 53.316406 1.917969 76.933594 C 0.980469 80.890625 0.980469 84.925781 1.917969 88.882812 C 1.84375 88.597656 1.773438 88.378906 1.773438 88.09375 C -3.484375 64.476562 23.878906 42.730469 62.683594 39.636719 C 101.566406 36.46875 137.203125 53.101562 142.390625 76.789062 C 143.179688 80.605469 143.179688 84.421875 142.390625 88.164062 C 142.316406 88.378906 142.246094 88.667969 142.246094 88.882812 Z M 142.246094 88.882812 " fill-opacity="1" fill-rule="nonzero"/><path fill="#ffffff" d="M 136.84375 104.148438 C 147.429688 82.332031 126.980469 59.507812 91.195312 53.101562 C 55.414062 46.691406 17.828125 59.074219 7.246094 80.890625 C 3.574219 88.523438 3.574219 96.589844 7.246094 104.148438 C 7.101562 103.933594 7.027344 103.644531 6.886719 103.429688 C -3.410156 81.539062 17.398438 58.714844 53.324219 52.378906 C 89.324219 46.117188 126.910156 58.789062 137.203125 80.675781 C 140.734375 88.09375 140.734375 96.011719 137.203125 103.429688 C 137.0625 103.644531 136.917969 103.933594 136.84375 104.148438 Z M 136.84375 104.148438 " fill-opacity="1" fill-rule="nonzero"/><path fill="#ffffff" d="M 127.699219 118.476562 C 143.035156 99.757812 130.652344 77.003906 99.910156 67.644531 C 69.164062 58.285156 31.796875 65.84375 16.460938 84.5625 C 7.675781 95.21875 7.675781 107.820312 16.460938 118.476562 C 16.246094 118.261719 16.101562 118.042969 15.886719 117.757812 C 0.765625 98.890625 13.652344 76.066406 44.613281 66.851562 C 75.644531 57.707031 113.085938 65.554688 128.203125 84.421875 C 136.628906 94.933594 136.628906 107.242188 128.203125 117.828125 C 128.0625 118.042969 127.84375 118.261719 127.699219 118.476562 Z M 127.699219 118.476562 " fill-opacity="1" fill-rule="nonzero"/><path fill="#ffffff" d="M 113.804688 131.363281 C 133.53125 117.324219 130.796875 96.226562 107.757812 84.203125 C 84.71875 72.179688 50.011719 73.835938 30.285156 87.875 C 12.71875 100.402344 12.71875 118.835938 30.285156 131.363281 C 29.996094 131.148438 29.710938 130.933594 29.421875 130.789062 C 9.910156 116.460938 13.148438 95.21875 36.691406 83.339844 C 60.238281 71.460938 95.15625 73.476562 114.667969 87.804688 C 131.660156 100.261719 131.660156 118.332031 114.667969 130.789062 C 114.382812 131.003906 114.09375 131.21875 113.804688 131.363281 Z M 113.804688 131.363281 " fill-opacity="1" fill-rule="nonzero"/><path fill="#ffffff" d="M 89.828125 142.523438 C 113.230469 136.546875 124.316406 120.132812 114.523438 105.875 C 104.734375 91.621094 77.734375 84.851562 54.261719 90.828125 C 30.859375 96.804688 19.773438 113.21875 29.566406 127.476562 C 34.246094 134.316406 43.101562 139.714844 54.261719 142.523438 C 53.613281 142.378906 52.964844 142.164062 52.390625 142.019531 C 29.132812 135.394531 19.054688 118.546875 29.851562 104.363281 C 40.726562 90.179688 68.371094 84.058594 91.699219 90.683594 C 114.957031 97.308594 125.035156 114.15625 114.238281 128.339844 C 109.628906 134.386719 101.636719 139.210938 91.699219 142.019531 C 91.054688 142.234375 90.40625 142.378906 89.828125 142.523438 Z M 89.828125 142.523438 " fill-opacity="1" fill-rule="nonzero"/><g clip-path="url(#6c691f9724)"><path fill="#ffffff" d="M 107.757812 122.363281 C 107.757812 134.386719 91.773438 144.109375 72.046875 144.109375 C 52.316406 144.109375 36.332031 134.386719 36.332031 122.363281 C 36.332031 110.339844 52.316406 100.621094 72.046875 100.621094 C 91.773438 100.621094 107.757812 110.339844 107.757812 122.363281 Z M 108.332031 122.074219 C 108.332031 109.90625 92.132812 99.972656 72.046875 99.972656 C 52.027344 99.972656 35.757812 109.835938 35.757812 122.074219 C 35.757812 134.242188 51.957031 144.179688 72.046875 144.179688 C 92.0625 144.179688 108.332031 134.316406 108.332031 122.074219 Z M 108.332031 122.074219 " fill-opacity="1" fill-rule="nonzero"/></g><path fill="#ffffff" d="M 96.382812 126.539062 C 96.382812 134.746094 85.507812 141.371094 72.046875 141.371094 C 58.582031 141.371094 47.710938 134.675781 47.710938 126.539062 C 47.710938 118.332031 58.582031 111.707031 72.046875 111.707031 C 85.507812 111.707031 96.382812 118.332031 96.382812 126.539062 Z M 96.957031 126.324219 C 96.957031 117.972656 85.796875 111.132812 72.046875 111.132812 C 58.292969 111.132812 47.132812 117.898438 47.132812 126.324219 C 47.132812 134.746094 58.292969 141.515625 72.046875 141.515625 C 85.796875 141.515625 96.957031 134.746094 96.957031 126.324219 Z M 96.957031 126.324219 " fill-opacity="1" fill-rule="nonzero"/><path fill="#ffffff" d="M 84.214844 129.058594 C 84.214844 133.164062 78.742188 136.476562 72.046875 136.476562 C 65.277344 136.476562 59.878906 133.164062 59.878906 129.058594 C 59.878906 124.957031 65.277344 121.644531 72.046875 121.644531 C 78.8125 121.644531 84.214844 124.957031 84.214844 129.058594 Z M 84.859375 128.988281 C 84.859375 124.667969 79.101562 121.210938 72.046875 121.210938 C 64.988281 121.210938 59.230469 124.667969 59.230469 128.988281 C 59.230469 133.308594 64.988281 136.765625 72.046875 136.765625 C 79.101562 136.765625 84.859375 133.308594 84.859375 128.988281 Z M 84.859375 128.988281 " fill-opacity="1" fill-rule="nonzero"/></g></g></g></g><g clip-path="url(#008d31a2bf)"><path fill="#ffffff" d="M 187.8125 74.757812 C 189.179688 74.757812 191.195312 106.941406 192.203125 146.683594 C 193.285156 186.429688 192.996094 218.683594 191.628906 218.757812 C 191.84375 218.757812 192.0625 218.757812 192.277344 218.757812 C 193.644531 218.683594 193.933594 186.429688 192.851562 146.683594 C 191.773438 106.941406 189.828125 74.757812 188.460938 74.757812 C 188.246094 74.757812 188.027344 74.757812 187.8125 74.757812 Z M 187.8125 74.757812 " fill-opacity="1" fill-rule="nonzero"/></g><g clip-path="url(#12e96688bc)"><path fill="#ffffff" d="M 180.109375 75.476562 C 186.878906 74.539062 196.667969 105.714844 201.996094 145.171875 C 207.324219 184.628906 206.101562 217.242188 199.40625 218.179688 C 199.621094 218.179688 199.835938 218.109375 200.054688 218.109375 C 206.820312 217.171875 207.972656 184.484375 202.644531 145.101562 C 197.316406 105.714844 187.523438 74.539062 180.757812 75.402344 C 180.542969 75.402344 180.324219 75.402344 180.109375 75.476562 Z M 180.109375 75.476562 " fill-opacity="1" fill-rule="nonzero"/></g><path fill="#ffffff" d="M 172.117188 76.988281 C 183.851562 74.035156 201.203125 102.835938 210.925781 141.429688 C 220.644531 179.949219 219.0625 213.644531 207.398438 216.667969 C 207.398438 216.667969 207.398438 216.667969 207.324219 216.667969 C 207.542969 216.597656 207.757812 216.523438 207.972656 216.523438 C 219.636719 213.5 221.292969 179.875 211.5 141.285156 C 201.78125 102.765625 184.429688 73.964844 172.765625 76.84375 C 172.550781 76.914062 172.332031 76.988281 172.117188 76.988281 Z M 172.117188 76.988281 " fill-opacity="1" fill-rule="nonzero"/><path fill="#ffffff" d="M 163.691406 79.722656 C 179.460938 73.53125 203.941406 98.515625 218.339844 135.597656 C 232.742188 172.675781 231.660156 207.738281 215.894531 213.933594 C 215.894531 213.933594 215.820312 213.933594 215.820312 214.003906 C 215.964844 213.933594 216.179688 213.859375 216.398438 213.789062 C 232.164062 207.597656 233.316406 172.53125 218.84375 135.453125 C 204.445312 98.515625 180.109375 73.460938 164.269531 79.507812 C 164.125 79.578125 163.910156 79.652344 163.691406 79.722656 Z M 163.691406 79.722656 " fill-opacity="1" fill-rule="nonzero"/><path fill="#ffffff" d="M 154.621094 84.042969 C 173.195312 73.605469 203.941406 93.1875 223.382812 127.890625 C 242.820312 162.597656 243.46875 199.242188 224.964844 209.683594 C 224.894531 209.683594 224.820312 209.757812 224.820312 209.757812 C 225.035156 209.613281 225.253906 209.539062 225.46875 209.394531 C 243.972656 198.957031 243.324219 162.378906 223.886719 127.675781 C 204.515625 93.117188 173.917969 73.460938 155.269531 83.683594 C 155.054688 83.828125 154.835938 83.972656 154.621094 84.042969 Z M 154.621094 84.042969 " fill-opacity="1" fill-rule="nonzero"/><path fill="#ffffff" d="M 144.972656 90.597656 C 164.484375 74.898438 200.414062 87.429688 225.179688 118.53125 C 249.949219 149.636719 254.269531 187.578125 234.683594 203.203125 C 234.613281 203.277344 234.542969 203.347656 234.46875 203.421875 C 234.683594 203.277344 234.902344 203.058594 235.117188 202.914062 C 254.628906 187.21875 250.382812 149.347656 225.613281 118.242188 C 200.917969 87.285156 165.203125 74.757812 145.621094 90.09375 C 145.40625 90.234375 145.1875 90.453125 144.972656 90.597656 Z M 144.972656 90.597656 " fill-opacity="1" fill-rule="nonzero"/><path fill="#ffffff" d="M 135.035156 100.316406 C 153.109375 78.933594 192.277344 82.460938 222.589844 108.234375 C 252.902344 134.011719 262.835938 172.171875 244.765625 193.554688 C 244.691406 193.699219 244.550781 193.773438 244.476562 193.914062 C 244.691406 193.699219 244.835938 193.484375 245.054688 193.269531 C 263.125 171.8125 253.1875 133.652344 222.878906 107.875 C 192.78125 82.242188 153.828125 78.570312 135.613281 99.597656 C 135.398438 99.882812 135.253906 100.101562 135.035156 100.316406 Z M 135.035156 100.316406 " fill-opacity="1" fill-rule="nonzero"/><path fill="#ffffff" d="M 125.894531 114.066406 C 139.574219 87.285156 179.316406 80.226562 214.667969 98.371094 C 250.019531 116.515625 267.660156 152.949219 253.980469 179.804688 C 253.910156 179.949219 253.835938 180.164062 253.765625 180.308594 C 253.910156 180.019531 254.054688 179.730469 254.195312 179.445312 C 267.878906 152.660156 250.238281 116.15625 214.886719 98.011719 C 179.75 80.011719 140.222656 86.78125 126.324219 113.203125 C 126.179688 113.492188 126.035156 113.78125 125.894531 114.066406 Z M 125.894531 114.066406 " fill-opacity="1" fill-rule="nonzero"/><path fill="#ffffff" d="M 119.558594 132.066406 C 125.964844 101.394531 162.683594 83.253906 201.566406 91.53125 C 240.445312 99.738281 266.796875 131.277344 260.390625 161.875 C 260.390625 162.09375 260.390625 162.234375 260.316406 162.453125 C 260.390625 162.09375 260.460938 161.804688 260.53125 161.445312 C 266.941406 130.84375 240.589844 99.308594 201.710938 91.101562 C 163.117188 82.890625 126.613281 100.746094 119.84375 130.988281 C 119.699219 131.347656 119.628906 131.707031 119.558594 132.066406 Z M 119.558594 132.066406 " fill-opacity="1" fill-rule="nonzero"/><g clip-path="url(#b3f0356730)"><path fill="#ffffff" d="M 118.261719 152.445312 C 115.8125 121.050781 145.910156 93.117188 185.582031 90.09375 C 225.253906 87.066406 259.382812 110.035156 261.828125 141.5 C 261.828125 141.714844 261.828125 141.933594 261.902344 142.148438 C 261.902344 141.789062 261.828125 141.429688 261.828125 141.140625 C 259.308594 109.675781 225.179688 86.636719 185.507812 89.660156 C 146.195312 92.683594 116.171875 120.1875 118.1875 151.363281 C 118.1875 151.722656 118.261719 152.082031 118.261719 152.445312 Z M 118.261719 152.445312 " fill-opacity="1" fill-rule="nonzero"/></g><path fill="#ffffff" d="M 122.582031 171.882812 C 111.851562 143.011719 133.382812 108.453125 170.675781 94.699219 C 207.972656 80.949219 246.925781 93.1875 257.652344 122.058594 C 257.726562 122.203125 257.796875 122.421875 257.867188 122.5625 C 257.726562 122.277344 257.652344 121.988281 257.507812 121.628906 C 246.78125 92.757812 207.828125 80.515625 170.53125 94.269531 C 133.523438 107.949219 111.925781 142.074219 122.222656 170.875 C 122.363281 171.234375 122.4375 171.523438 122.582031 171.882812 Z M 122.582031 171.882812 " fill-opacity="1" fill-rule="nonzero"/><path fill="#ffffff" d="M 130.789062 187.652344 C 114.230469 163.675781 127.40625 126.019531 160.238281 103.484375 C 193.070312 81.019531 233.027344 82.242188 249.589844 106.21875 C 249.660156 106.363281 249.734375 106.507812 249.804688 106.652344 C 249.660156 106.363281 249.515625 106.148438 249.300781 105.859375 C 232.742188 81.882812 192.78125 80.660156 159.949219 103.125 C 127.40625 125.445312 114.085938 162.8125 130.285156 186.859375 C 130.429688 187.148438 130.574219 187.363281 130.789062 187.652344 Z M 130.789062 187.652344 " fill-opacity="1" fill-rule="nonzero"/><path fill="#ffffff" d="M 140.582031 199.101562 C 121.214844 180.8125 127.765625 142.652344 155.195312 113.851562 C 182.628906 85.050781 220.5 76.484375 239.796875 94.773438 C 239.941406 94.84375 240.011719 94.914062 240.085938 94.988281 C 239.867188 94.773438 239.652344 94.628906 239.507812 94.410156 C 220.140625 76.125 182.269531 84.691406 154.835938 113.492188 C 127.621094 142.148438 120.925781 180.09375 140.003906 198.523438 C 140.222656 198.738281 140.4375 198.882812 140.582031 199.101562 Z M 140.582031 199.101562 " fill-opacity="1" fill-rule="nonzero"/><path fill="#ffffff" d="M 150.515625 206.949219 C 131.078125 194.203125 133.09375 156.90625 155.054688 123.789062 C 177.011719 90.597656 210.566406 74.109375 230.003906 86.851562 C 230.078125 86.925781 230.148438 86.925781 230.222656 86.996094 C 230.003906 86.851562 229.789062 86.707031 229.574219 86.5625 C 210.132812 73.820312 176.582031 90.308594 154.621094 123.5 C 132.804688 156.476562 130.644531 193.628906 149.867188 206.515625 C 150.085938 206.660156 150.300781 206.804688 150.515625 206.949219 Z M 150.515625 206.949219 " fill-opacity="1" fill-rule="nonzero"/><path fill="#ffffff" d="M 159.878906 212.132812 C 142.453125 204.066406 141.949219 168.355469 158.726562 132.285156 C 175.5 96.210938 203.292969 73.53125 220.71875 81.597656 C 220.789062 81.597656 220.789062 81.667969 220.859375 81.667969 C 220.644531 81.597656 220.429688 81.453125 220.214844 81.378906 C 202.789062 73.316406 174.996094 95.996094 158.222656 132.066406 C 141.445312 167.996094 141.949219 203.636719 159.230469 211.84375 C 159.445312 211.914062 159.660156 212.058594 159.878906 212.132812 Z M 159.878906 212.132812 " fill-opacity="1" fill-rule="nonzero"/><path fill="#ffffff" d="M 168.589844 215.515625 C 154.691406 211.195312 153.109375 176.925781 165.132812 138.980469 C 177.15625 101.035156 198.109375 73.890625 212.003906 78.210938 L 212.078125 78.210938 C 211.933594 78.140625 211.71875 78.066406 211.5 77.996094 C 197.605469 73.675781 176.582031 100.820312 164.628906 138.765625 C 152.605469 176.636719 154.117188 210.835938 167.941406 215.300781 C 168.15625 215.371094 168.371094 215.445312 168.589844 215.515625 Z M 168.589844 215.515625 " fill-opacity="1" fill-rule="nonzero"/><path fill="#ffffff" d="M 176.796875 217.53125 C 167.507812 215.804688 165.996094 182.683594 173.484375 143.660156 C 180.972656 104.636719 194.582031 74.394531 203.941406 76.125 C 203.726562 76.050781 203.507812 76.050781 203.292969 75.980469 C 194.003906 74.253906 180.324219 104.492188 172.835938 143.515625 C 165.347656 182.539062 166.859375 215.589844 176.148438 217.386719 C 176.363281 217.460938 176.582031 217.460938 176.796875 217.53125 Z M 176.796875 217.53125 " fill-opacity="1" fill-rule="nonzero"/><g clip-path="url(#6832b1f947)"><path fill="#ffffff" d="M 184.574219 218.539062 C 180.46875 218.179688 179.75 185.78125 182.917969 146.179688 C 186.085938 106.507812 191.988281 74.683594 196.09375 74.972656 C 195.878906 74.972656 195.660156 74.972656 195.445312 74.898438 C 191.414062 74.613281 185.507812 106.507812 182.269531 146.109375 C 179.101562 185.78125 179.820312 218.109375 183.925781 218.46875 C 184.214844 218.539062 184.429688 218.539062 184.574219 218.539062 Z M 184.574219 218.539062 " fill-opacity="1" fill-rule="nonzero"/></g><g clip-path="url(#295263b0f7)"><path fill="#ffffff" d="M 170.390625 216.019531 C 182.84375 219.546875 197.246094 219.546875 209.699219 216.019531 C 209.054688 216.234375 208.40625 216.378906 207.828125 216.523438 C 196.453125 219.402344 183.710938 219.402344 172.332031 216.523438 C 171.683594 216.378906 171.035156 216.234375 170.390625 216.019531 Z M 170.390625 216.019531 " fill-opacity="1" fill-rule="nonzero"/></g><path fill="#ffffff" d="M 147.421875 204.789062 C 166.933594 219.117188 201.851562 221.132812 225.398438 209.253906 C 228.0625 207.882812 230.507812 206.445312 232.667969 204.789062 C 232.382812 205.003906 232.09375 205.21875 231.804688 205.363281 C 212.078125 219.476562 177.445312 221.132812 154.332031 209.109375 C 152.171875 207.957031 150.15625 206.730469 148.285156 205.363281 C 147.996094 205.21875 147.710938 205.003906 147.421875 204.789062 Z M 147.421875 204.789062 " fill-opacity="1" fill-rule="nonzero"/><path fill="#ffffff" d="M 133.886719 191.757812 C 149.003906 210.621094 186.445312 218.46875 217.476562 209.253906 C 230.003906 205.578125 240.085938 199.386719 246.203125 191.757812 C 245.988281 191.972656 245.84375 192.1875 245.628906 192.476562 C 230.292969 211.195312 192.925781 218.757812 162.179688 209.394531 C 150.15625 205.722656 140.4375 199.820312 134.390625 192.476562 C 134.246094 192.261719 134.027344 192.042969 133.886719 191.757812 Z M 133.886719 191.757812 " fill-opacity="1" fill-rule="nonzero"/><path fill="#ffffff" d="M 124.886719 177.429688 C 135.179688 199.316406 172.691406 211.988281 208.691406 205.722656 C 231.15625 201.835938 248.726562 191.109375 255.132812 177.429688 C 255.0625 177.644531 254.917969 177.933594 254.84375 178.148438 C 244.261719 199.964844 206.675781 212.421875 170.894531 205.941406 C 148.933594 202.050781 131.726562 191.539062 125.246094 178.148438 C 125.171875 177.933594 125.027344 177.644531 124.886719 177.429688 Z M 124.886719 177.429688 " fill-opacity="1" fill-rule="nonzero"/><path fill="#ffffff" d="M 119.699219 162.09375 C 124.886719 185.78125 160.523438 202.410156 199.40625 199.242188 C 231.15625 196.652344 256.140625 181.460938 260.390625 162.09375 C 260.316406 162.378906 260.246094 162.667969 260.246094 162.882812 C 254.773438 186.5 218.988281 202.914062 180.179688 199.605469 C 148.859375 196.941406 124.238281 181.964844 119.84375 162.882812 C 119.84375 162.667969 119.773438 162.378906 119.699219 162.09375 Z M 119.699219 162.09375 " fill-opacity="1" fill-rule="nonzero"/><g clip-path="url(#7d0c258d7d)"><path fill="#ffffff" d="M 118.046875 146.324219 C 117.902344 170.515625 150.085938 190.242188 189.828125 190.316406 C 229.574219 190.386719 261.902344 170.875 262.046875 146.613281 C 262.046875 146.539062 262.046875 146.394531 262.046875 146.324219 C 262.046875 146.613281 262.046875 146.828125 262.046875 147.117188 C 261.902344 171.378906 229.574219 190.890625 189.828125 190.820312 C 150.230469 190.746094 118.1875 171.234375 118.046875 147.117188 C 118.046875 146.898438 118.046875 146.613281 118.046875 146.324219 Z M 118.046875 146.324219 " fill-opacity="1" fill-rule="nonzero"/></g><path fill="#ffffff" d="M 119.84375 130.628906 C 114.445312 154.242188 141.445312 175.988281 180.179688 179.300781 C 218.917969 182.613281 254.773438 166.195312 260.171875 142.578125 C 261.109375 138.621094 261.109375 134.589844 260.171875 130.628906 C 260.246094 130.914062 260.316406 131.132812 260.316406 131.421875 C 265.574219 155.035156 238.285156 176.78125 199.40625 179.875 C 160.523438 183.042969 124.886719 166.410156 119.699219 142.722656 C 118.910156 138.90625 118.910156 135.09375 119.699219 131.347656 C 119.773438 131.132812 119.84375 130.84375 119.84375 130.628906 Z M 119.84375 130.628906 " fill-opacity="1" fill-rule="nonzero"/><path fill="#ffffff" d="M 125.246094 115.363281 C 114.660156 137.179688 135.109375 160.003906 170.894531 166.410156 C 206.675781 172.820312 244.261719 160.4375 254.84375 138.621094 C 258.515625 130.988281 258.515625 122.925781 254.84375 115.363281 C 254.988281 115.578125 255.0625 115.867188 255.203125 116.082031 C 265.5 137.972656 244.691406 160.796875 208.765625 167.132812 C 172.765625 173.394531 135.179688 160.722656 124.886719 138.835938 C 121.355469 131.421875 121.355469 123.5 124.886719 116.082031 C 125.027344 115.867188 125.171875 115.578125 125.246094 115.363281 Z M 125.246094 115.363281 " fill-opacity="1" fill-rule="nonzero"/><path fill="#ffffff" d="M 134.390625 101.035156 C 119.054688 119.757812 131.4375 142.507812 162.179688 151.867188 C 192.925781 161.226562 230.292969 153.667969 245.628906 134.949219 C 254.414062 124.292969 254.414062 111.691406 245.628906 101.035156 C 245.84375 101.253906 245.988281 101.46875 246.203125 101.757812 C 261.324219 120.621094 248.4375 143.445312 217.476562 152.660156 C 186.445312 161.804688 149.003906 153.957031 133.886719 135.09375 C 125.460938 124.578125 125.460938 112.269531 133.886719 101.683594 C 134.027344 101.46875 134.246094 101.253906 134.390625 101.035156 Z M 134.390625 101.035156 " fill-opacity="1" fill-rule="nonzero"/><path fill="#ffffff" d="M 148.285156 88.148438 C 128.558594 102.1875 131.292969 123.285156 154.332031 135.308594 C 177.371094 147.332031 212.078125 145.675781 231.804688 131.636719 C 249.371094 119.109375 249.371094 100.675781 231.804688 88.148438 C 232.09375 88.363281 232.382812 88.578125 232.667969 88.722656 C 252.179688 103.050781 248.941406 124.292969 225.398438 136.171875 C 201.851562 148.050781 166.933594 146.035156 147.421875 131.707031 C 130.429688 119.253906 130.429688 101.179688 147.421875 88.722656 C 147.710938 88.507812 147.996094 88.292969 148.285156 88.148438 Z M 148.285156 88.148438 " fill-opacity="1" fill-rule="nonzero"/><path fill="#ffffff" d="M 172.261719 76.988281 C 148.859375 82.964844 137.773438 99.378906 147.566406 113.636719 C 157.355469 127.890625 184.355469 134.660156 207.828125 128.683594 C 231.230469 122.707031 242.316406 106.292969 232.523438 92.035156 C 227.84375 85.195312 218.988281 79.796875 207.828125 76.988281 C 208.476562 77.132812 209.125 77.347656 209.699219 77.492188 C 232.957031 84.117188 243.035156 100.964844 232.238281 115.148438 C 221.363281 129.332031 193.71875 135.453125 170.390625 128.828125 C 147.132812 122.203125 137.054688 105.355469 147.851562 91.171875 C 152.460938 85.125 160.453125 80.300781 170.390625 77.492188 C 171.035156 77.277344 171.683594 77.132812 172.261719 76.988281 Z M 172.261719 76.988281 " fill-opacity="1" fill-rule="nonzero"/><path fill="#ffffff" d="M 154.332031 97.148438 C 154.332031 85.125 170.316406 75.402344 190.046875 75.402344 C 209.773438 75.402344 225.757812 85.125 225.757812 97.148438 C 225.757812 109.171875 209.773438 118.890625 190.046875 118.890625 C 170.316406 118.890625 154.332031 109.171875 154.332031 97.148438 Z M 153.757812 97.4375 C 153.757812 109.605469 169.957031 119.539062 190.046875 119.539062 C 210.0625 119.539062 226.332031 109.675781 226.332031 97.4375 C 226.332031 85.269531 210.132812 75.332031 190.046875 75.332031 C 170.027344 75.332031 153.757812 85.195312 153.757812 97.4375 Z M 153.757812 97.4375 " fill-opacity="1" fill-rule="nonzero"/><path fill="#ffffff" d="M 165.710938 92.972656 C 165.710938 84.765625 176.582031 78.140625 190.046875 78.140625 C 203.507812 78.140625 214.382812 84.835938 214.382812 92.972656 C 214.382812 101.179688 203.507812 107.804688 190.046875 107.804688 C 176.582031 107.804688 165.710938 101.179688 165.710938 92.972656 Z M 165.132812 93.1875 C 165.132812 101.539062 176.292969 108.378906 190.046875 108.378906 C 203.796875 108.378906 214.957031 101.613281 214.957031 93.1875 C 214.957031 84.835938 203.796875 77.996094 190.046875 77.996094 C 176.292969 77.996094 165.132812 84.765625 165.132812 93.1875 Z M 165.132812 93.1875 " fill-opacity="1" fill-rule="nonzero"/><path fill="#ffffff" d="M 177.878906 90.453125 C 177.878906 86.347656 183.347656 83.035156 190.046875 83.035156 C 196.8125 83.035156 202.214844 86.347656 202.214844 90.453125 C 202.214844 94.554688 196.742188 97.867188 190.046875 97.867188 C 183.277344 97.867188 177.878906 94.554688 177.878906 90.453125 Z M 177.230469 90.523438 C 177.230469 94.84375 182.988281 98.300781 190.046875 98.300781 C 197.101562 98.300781 202.859375 94.84375 202.859375 90.523438 C 202.859375 86.203125 197.101562 82.746094 190.046875 82.746094 C 182.988281 82.746094 177.230469 86.203125 177.230469 90.523438 Z M 177.230469 90.523438 " fill-opacity="1" fill-rule="nonzero"/><path fill="#0dcece" d="M 122.78125 116.320312 C 120.292969 121.777344 118.542969 127.378906 117.496094 133.019531 C 119.257812 134.089844 121.183594 135.175781 123.265625 136.277344 C 124.324219 130.820312 126.039062 125.40625 128.449219 120.128906 C 144.90625 84.074219 187.53125 68.160156 223.65625 84.589844 C 226.28125 85.785156 228.796875 87.117188 231.203125 88.574219 C 227.167969 85.570312 222.753906 82.949219 217.988281 80.78125 C 184.644531 65.617188 145.765625 78.007812 127.035156 108.359375 C 126.386719 109.40625 125.765625 110.472656 125.167969 111.5625 C 124.324219 113.105469 123.527344 114.691406 122.78125 116.320312 " fill-opacity="1" fill-rule="nonzero"/><g clip-path="url(#89967d0d37)"><path fill="#0dcece" d="M 150.835938 207.371094 C 131.128906 192.707031 120.46875 168.984375 122.128906 144.929688 C 120.152344 144.105469 118.238281 143.277344 116.386719 142.453125 C 115.089844 168.261719 127.921875 193.496094 150.835938 207.371094 " fill-opacity="1" fill-rule="nonzero"/></g><path fill="#0dcece" d="M 251.21875 138.691406 C 251.222656 138.914062 251.222656 139.140625 251.222656 139.367188 C 275.597656 149.835938 287.847656 160.246094 280.191406 165.972656 C 274.96875 169.878906 261.429688 170.898438 243.5 169.410156 C 223.691406 167.765625 198.527344 163.0625 173.3125 155.800781 C 157.429688 151.222656 143.515625 146.207031 132.402344 141.242188 C 131.449219 140.816406 130.511719 140.390625 129.597656 139.964844 C 128.945312 139.660156 128.304688 139.355469 127.671875 139.054688 C 125.929688 138.214844 124.273438 137.382812 122.703125 136.554688 C 120.621094 135.457031 118.695312 134.371094 116.933594 133.296875 C 105.320312 126.242188 100.851562 119.894531 106.238281 115.867188 C 109.476562 113.445312 115.914062 112.136719 124.609375 111.839844 C 125.203125 110.753906 125.828125 109.683594 126.472656 108.640625 C 106.160156 107.074219 90.863281 108.328125 84.875 112.804688 C 76.199219 119.292969 89.242188 130.890625 115.824219 142.734375 C 117.675781 143.558594 119.589844 144.386719 121.570312 145.210938 C 124.152344 146.289062 126.84375 147.367188 129.636719 148.4375 C 129.839844 148.515625 130.042969 148.59375 130.246094 148.671875 C 131.605469 149.191406 132.992188 149.710938 134.398438 150.226562 C 143.328125 153.507812 153.175781 156.726562 163.773438 159.777344 C 190.734375 167.546875 217.644531 172.824219 239.820312 175.171875 C 264.117188 177.746094 282.726562 176.800781 289.488281 171.746094 C 298.921875 164.691406 282.65625 151.585938 251.21875 138.691406 " fill-opacity="1" fill-rule="nonzero"/><path stroke-linecap="butt" transform="matrix(3.001352, 0.0107593, -0.0107544, 2.999981, 50.584187, 271.126153)" fill="none" stroke-linejoin="miter" d="M 0.000581926 -0.000386555 L 93.959532 -0.000124845 " stroke="#ffffff" stroke-width="1" stroke-opacity="1" stroke-miterlimit="4"/></svg>